<svg width="1149" height="921" viewBox="0 0 1149 921" fill="none" xmlns="http://www.w3.org/2000/svg">
<g id="Group 1">
<path id="KEYBOARD" d="M480 742.5L312 688.5L496 586.5L631.5 634L480 742.5Z" fill="#D9D9D9"/>
<path id="KEYBOARD_INNER" d="M427.5 715.5L333.5 685L497.5 594L563 620.5L427.5 715.5Z" fill="#B9B9B9"/>
<path id="PC_SCREEN" d="M312 689L225.5 514.5L419 435L495 586.5L312 689Z" fill="black"/>
<path id="HEAD" d="M825 189C744.2 133.4 661.333 180.333 620 203.5C610.976 213.276 594.216 235.375 592.5 252.236C594 273.324 599.3 317.9 608.5 327.5C620 339.5 632 379 626.5 381C621 383 653.5 420 659 444C664.5 468 690 471.5 714.5 473C739 474.5 849.5 341.5 853 335.5C861 277.5 844.5 232.5 825 189Z" fill="#FFEBE0"/>
<path id="NECK" d="M853 322C850.604 345.5 853 464.5 932.5 438C884.142 461.228 779.499 514.813 752.402 533.193C752.617 536.945 751.157 539.262 747.5 539.5C744.096 539.722 746.252 537.364 752.402 533.193C751.535 518.069 723.465 479.63 702.5 460L712 414.5C738.833 318.167 866.669 187.941 853 322Z" fill="#FFEBE0"/>
<path id="BEARD" d="M654.5 372C659.5 366 630 328.5 643 330C650.45 330.86 657.661 328.52 662.5 326.144C670.5 377.788 707 410.5 714.5 458.5C722 506.5 648.5 471 649.5 464C650.5 457 643 412.5 643 412.5C655.5 409 649.5 378 654.5 372Z" fill="#783C2F"/>
<path id="RIGHT_LOWER_ARM" d="M495 581.5C485 588.7 480.833 604.833 480 612C477.2 614.8 481.167 617.5 483.5 618.5C487.333 617.667 495 616.8 495 620C495 624 488.5 625 511.5 629.5C534.5 634 523 624.5 545.5 633C563.5 639.8 597 627.167 611.5 620L856 608.5L800 570L611.5 581.5C597.833 575.5 567.6 564.1 556 566.5C541.5 569.5 518.5 565.5 511.5 566.5C504.5 567.5 507.5 572.5 495 581.5Z" fill="#FFEBE0"/>
<path id="LEFT_UPPER_ARM" d="M495.5 789.5C526.3 788.3 583.333 693.333 608 646L690.5 789.5C688.667 798.667 674.6 824.3 633 853.5C591.4 882.7 486.667 855.333 439.5 838C445.333 822.333 464.7 790.7 495.5 789.5Z" fill="#FFEBE0"/>
<path id="SHIRT" d="M618.5 609C615.7 632.2 579 698.333 561 728.5C561 773.7 643.5 800.333 681.5 809L662.5 894L815.5 896.5L1138.5 821.5C1062 788.5 1067.5 477 1018.5 448.5C1001.08 438.366 930.5 433.5 888 433.5C875.5 481.5 764 518 751 518C743.5 537 622 580 618.5 609Z" fill="#491E1E"/>
<path id="LEFT_LOWER_ARM" d="M452.5 849C432.9 847 434.333 767.833 437.5 728.5C429 732 396 707 394.5 699C393 691 384 683 376 677.5C368 672 384.5 662 380 655C375.5 648 401 626 408.5 626C414.5 626 418.333 628.667 419.5 630C423.5 626 432.7 619.6 437.5 626C443.5 634 486.5 653.5 493 665C499.5 676.5 505.5 673.5 493 707C483 733.8 538.167 782.833 567 804C537 819.833 472.1 851 452.5 849Z" fill="#FFEBE0"/>
<rect id="BORDER_BOTTOM" y="821" width="1049" height="100" fill="#D9D9D9"/>
<rect id="BORDER_RIGHT" x="1049" width="100" height="921" fill="#D9D9D9"/>
</g>
</svg>
